<?xml version="1.0" encoding="utf-8"?>
<!-- Generator: Adobe Illustrator 18.0.0, SVG Export Plug-In . SVG Version: 6.00 Build 0)  -->
<!DOCTYPE svg PUBLIC "-//W3C//DTD SVG 1.1//EN" "http://www.w3.org/Graphics/SVG/1.1/DTD/svg11.dtd">
<svg version="1.1" id="Layer_1" xmlns="http://www.w3.org/2000/svg" xmlns:xlink="http://www.w3.org/1999/xlink" x="0px" y="0px"
	 viewBox="0 0 31.7 31.7" enable-background="new 0 0 31.7 31.7" xml:space="preserve">
<g>
	<circle fill="#47A4DC" cx="15.7" cy="15.9" r="13.5"/>
	<path fill="#FFFFFF" d="M15.8,0C7.1,0,0,7.1,0,15.8c0,8.8,7.1,15.8,15.8,15.8c8.8,0,15.8-7.1,15.8-15.8C31.7,7.1,24.6,0,15.8,0z
		 M12.2,25.9c-1,0-1.8-0.8-1.8-1.8c0-1,0.8-1.8,1.8-1.8s1.8,0.8,1.8,1.8C14,25.1,13.2,25.9,12.2,25.9z M21.3,25.9
		c-1,0-1.8-0.8-1.8-1.8c0-1,0.8-1.8,1.8-1.8c1,0,1.8,0.8,1.8,1.8C23.1,25.1,22.3,25.9,21.3,25.9z M24.8,11l-3.2,5.9
		c-0.3,0.6-0.9,0.9-1.6,0.9h-6.7l-0.8,1.5l0,0.1c0,0.1,0.1,0.2,0.2,0.2h10.4v1.8H12.2c-1,0-1.8-0.8-1.8-1.8c0-0.3,0.1-0.6,0.2-0.9
		l1.2-2.2L8.6,9.6H6.8V7.8h3l0.8,1.8H24c0.5,0,0.9,0.4,0.9,0.9C24.9,10.7,24.8,10.8,24.8,11z"/>
</g>
</svg>
