<?xml version="1.0" encoding="utf-8"?>
<!-- Generator: Adobe Illustrator 18.0.0, SVG Export Plug-In . SVG Version: 6.00 Build 0)  -->
<!DOCTYPE svg PUBLIC "-//W3C//DTD SVG 1.1//EN" "http://www.w3.org/Graphics/SVG/1.1/DTD/svg11.dtd">
<svg version="1.1" id="Layer_1" xmlns="http://www.w3.org/2000/svg" xmlns:xlink="http://www.w3.org/1999/xlink" x="0px" y="0px"
	 viewBox="0 0 19.8 19.8" enable-background="new 0 0 19.8 19.8" xml:space="preserve">
<g>
	<g>
		<g>
			<g>
				<path fill="#B3B1B2" d="M19.4,17.7l-6-6c0.9-1.2,1.4-2.7,1.4-4.3c0-4.1-3.3-7.4-7.4-7.4C3.3,0,0,3.3,0,7.4
					c0,4.1,3.3,7.4,7.4,7.4c1.6,0,3.1-0.5,4.3-1.4l6,6c0.5,0.5,1.2,0.5,1.7,0C19.9,19,19.9,18.2,19.4,17.7z M7.4,13.6
					c-3.4,0-6.2-2.8-6.2-6.2C1.2,4,4,1.2,7.4,1.2c3.4,0,6.2,2.8,6.2,6.2C13.6,10.9,10.9,13.6,7.4,13.6z"/>
			</g>
		</g>
	</g>
</g>
</svg>
