<?xml version="1.0" standalone="no"?>
<!DOCTYPE svg PUBLIC "-//W3C//DTD SVG 1.1//EN" "http://www.w3.org/Graphics/SVG/1.1/DTD/svg11.dtd" >
<svg xmlns="http://www.w3.org/2000/svg">
<metadata>Generated by IcoMoon</metadata>
<defs>
<font id="icomoon" horiz-adv-x="1024">
<font-face units-per-em="1024" ascent="960" descent="-64" />
<missing-glyph horiz-adv-x="1024" />
<glyph unicode="&#x20;" horiz-adv-x="512" d="" />
<glyph unicode="&#xe600;" d="M943.243 446.385c0-240.845-195.243-436.088-436.088-436.088s-436.088 195.243-436.088 436.088c0 240.845 195.243 436.088 436.088 436.088s436.088-195.243 436.088-436.088z" />
<glyph unicode="&#xe601;" d="M510.385 960c-281.035 0-510.385-229.35-510.385-510.385 0-284.265 229.35-510.385 510.385-510.385 284.265 0 510.385 229.35 510.385 510.385 3.23 281.035-226.12 510.385-510.385 510.385zM394.095 123.356c-32.303 0-58.145 25.842-58.145 58.145s25.842 58.145 58.145 58.145 58.145-25.842 58.145-58.145c0-32.303-25.842-58.145-58.145-58.145zM688.050 123.356c-32.303 0-58.145 25.842-58.145 58.145s25.842 58.145 58.145 58.145c32.303 0 58.145-25.842 58.145-58.145s-25.842-58.145-58.145-58.145zM801.11 604.669l-103.369-190.587c-9.691-19.382-29.073-29.073-51.685-29.073h-216.429l-25.842-48.454v-3.23c0-3.23 3.23-6.461 6.461-6.461h335.95v-58.145h-352.101c-32.303 0-58.145 25.842-58.145 58.145 0 9.691 3.23 19.382 6.461 29.073l38.763 71.066-103.369 222.89h-58.145v58.145h96.909l25.842-58.145h432.858c16.151 0 29.073-12.921 29.073-29.073 0-6.461-3.23-9.691-3.23-16.151z" />
<glyph unicode="&#xe602;" glyph-name="down-caret" horiz-adv-x="1652" d="M1453.419 960l-627.613-627.613-627.613 627.613-198.194-198.194 825.806-825.806 825.806 825.806-198.194 198.194z" />
<glyph unicode="&#xe603;" horiz-adv-x="5741" d="M901.598 139.009h41.796l62.694-164.198h-44.781l-8.956 26.869h-59.708l-8.956-26.869h-44.781l62.694 164.198zM943.394 31.534l-20.898 68.665-20.898-68.665h41.796z" />
<glyph unicode="&#xe604;" horiz-adv-x="5741" d="M1018.029 100.198h35.825v-11.942c8.956 11.942 23.883 14.927 35.825 14.927 14.927 0 23.883-5.971 32.84-14.927 11.942 11.942 23.883 14.927 38.81 14.927 11.942 0 38.81-2.985 38.81-32.84v-92.548h-35.825v71.65c0 17.913-5.971 23.883-17.913 23.883s-17.913-8.956-17.913-20.898v-74.636h-35.825v77.621c0 11.942-2.985 20.898-17.913 20.898s-17.913-8.956-17.913-20.898v-74.636h-35.825v119.417z" />
<glyph unicode="&#xe605;" horiz-adv-x="5741" d="M1253.878 31.534c0-23.883 14.927-29.854 26.869-29.854s20.898 5.971 29.854 20.898l26.869-14.927c-11.942-23.883-32.84-32.84-59.708-32.84-38.81 0-59.708 26.869-59.708 59.708 0 41.796 23.883 68.665 59.708 68.665 44.781 0 59.708-32.84 59.708-71.65h-83.592zM1301.644 52.431c0 17.913-14.927 23.883-23.883 23.883s-23.883-5.971-23.883-23.883h47.767z" />
<glyph unicode="&#xe606;" horiz-adv-x="5741" d="M1358.367 100.198h35.825v-11.942c8.956 5.971 20.898 11.942 32.84 11.942v-32.84h-2.985c-20.898-2.985-29.854-5.971-29.854-20.898v-71.65h-35.825v125.388z" />
<glyph unicode="&#xe607;" horiz-adv-x="5741" d="M1441.959 139.009h35.825v-26.869h-35.825v26.869zM1477.784-22.204h-35.825v122.402h35.825v-122.402z" />
<glyph unicode="&#xe608;" horiz-adv-x="5741" d="M1585.259 61.388c-5.971 8.956-23.883 11.942-32.84 11.942s-14.927-2.985-14.927-8.956c0-20.898 71.65-2.985 71.65-50.752 0-32.84-29.854-44.781-53.738-44.781-26.869 0-41.796 8.956-59.708 23.883l20.898 17.913c11.942-11.942 20.898-17.913 38.81-17.913 5.971 0 20.898 0 20.898 11.942 0 17.913-71.65 2.985-71.65 47.767 0 29.854 26.869 41.796 50.752 41.796 17.913 0 38.81-5.971 53.738-17.913l-23.883-14.927z" />
<glyph unicode="&#xe609;" horiz-adv-x="5741" d="M1749.458 37.504c0-41.796-26.869-65.679-65.679-65.679s-65.679 23.883-65.679 65.679c0 41.796 26.869 65.679 65.679 65.679s65.679-23.883 65.679-65.679zM1653.924 37.504c0-20.898 8.956-35.825 29.854-35.825s29.854 14.927 29.854 38.81c0 20.898-8.956 35.825-29.854 35.825-20.898-2.985-29.854-17.913-29.854-38.81z" />
<glyph unicode="&#xe60a;" horiz-adv-x="5741" d="M1874.845-22.204h-35.825v11.942c-8.956-11.942-23.883-14.927-35.825-14.927-29.854 0-35.825 17.913-35.825 35.825v89.563h35.825v-80.606c0-11.942 2.985-17.913 17.913-17.913 8.956 0 17.913 5.971 17.913 17.913v77.621h35.825v-119.417z" />
<glyph unicode="&#xe60b;" horiz-adv-x="5741" d="M1904.7 100.198h35.825v-11.942c8.956 5.971 20.898 11.942 32.84 11.942v-32.84h-2.985c-20.898-2.985-29.854-5.971-29.854-20.898v-71.65h-35.825v125.388z" />
<glyph unicode="&#xe60c;" horiz-adv-x="5741" d="M2065.913 58.402c-5.971 14.927-17.913 17.913-23.883 17.913-20.898 0-26.869-14.927-26.869-35.825s8.956-35.825 26.869-35.825c11.942 0 20.898 2.985 26.869 17.913l26.869-11.942c-11.942-20.898-29.854-32.84-53.738-32.84-35.825 0-62.694 23.883-62.694 65.679s26.869 65.679 59.708 65.679c23.883 0 41.796-8.956 53.738-29.854l-26.869-20.898z" />
<glyph unicode="&#xe60d;" horiz-adv-x="5741" d="M2137.563 31.534c0-23.883 14.927-29.854 26.869-29.854s20.898 5.971 29.854 20.898l26.869-14.927c-11.942-23.883-32.84-32.84-59.708-32.84-38.81 0-59.708 26.869-59.708 59.708 0 41.796 23.883 68.665 59.708 68.665 44.781 0 59.708-32.84 59.708-71.65h-83.592zM2185.329 52.431c0 17.913-14.927 23.883-23.883 23.883s-23.883-5.971-23.883-23.883h47.767z" />
<glyph unicode="&#xe60e;" horiz-adv-x="5741" d="M2242.052 139.009h80.606c32.84 0 56.723-11.942 56.723-41.796 0-20.898-11.942-32.84-32.84-35.825v0c20.898-2.985 38.81-11.942 38.81-38.81 0-32.84-23.883-47.767-65.679-47.767h-74.636v164.198zM2280.863 76.315h32.84c11.942 0 20.898 5.971 20.898 17.913 0 14.927-8.956 17.913-20.898 17.913h-32.84v-35.825zM2280.863 7.65h32.84c20.898 0 26.869 8.956 26.869 17.913 0 14.927-5.971 20.898-20.898 20.898h-41.796v-38.81z" />
<glyph unicode="&#xe60f;" horiz-adv-x="5741" d="M2430.134 31.534c0-23.883 14.927-29.854 26.869-29.854s20.898 5.971 29.854 20.898l26.869-14.927c-11.942-23.883-32.84-32.84-59.708-32.84-38.81 0-59.708 26.869-59.708 59.708 0 41.796 23.883 68.665 59.708 68.665 44.781 0 59.708-32.84 59.708-71.65h-83.592zM2477.901 52.431c0 17.913-14.927 23.883-23.883 23.883s-23.883-5.971-23.883-23.883h47.767z" />
<glyph unicode="&#xe610;" horiz-adv-x="5741" d="M2534.624 100.198h35.825v-11.942c8.956 5.971 20.898 11.942 32.84 11.942v-32.84h-2.985c-20.898-2.985-29.854-5.971-29.854-20.898v-71.65h-35.825v125.388z" />
<glyph unicode="&#xe611;" horiz-adv-x="5741" d="M2725.691 100.198v-122.402c0-38.81-38.81-38.81-59.708-38.81-35.825 0-56.723 11.942-56.723 41.796h35.825c0-11.942 8.956-17.913 20.898-17.913 14.927 0 20.898 2.985 20.898 20.898v14.927c-8.956-8.956-23.883-8.956-32.84-8.956-32.84 0-47.767 26.869-47.767 59.708 0 29.854 14.927 59.708 47.767 59.708 11.942 0 23.883-2.985 35.825-11.942v8.956h35.825zM2668.968 76.315c-11.942 0-23.883-5.971-23.883-32.84 0-14.927 2.985-32.84 20.898-32.84 23.883 0 23.883 20.898 23.883 32.84 2.985 23.883-8.956 32.84-20.898 32.84z" />
<glyph unicode="&#xe612;" horiz-adv-x="5741" d="M2782.414 31.534c0-23.883 14.927-29.854 26.869-29.854s20.898 5.971 29.854 20.898l26.869-14.927c-11.942-23.883-32.84-32.84-59.708-32.84-38.81 0-59.708 26.869-59.708 59.708 0 41.796 23.883 68.665 59.708 68.665 44.781 0 59.708-32.84 59.708-71.65h-83.592zM2830.181 52.431c0 17.913-14.927 23.883-23.883 23.883s-23.883-5.971-23.883-23.883h47.767z" />
<glyph unicode="&#xe613;" horiz-adv-x="5741" d="M2886.904 100.198h35.825v-11.942c8.956 11.942 23.883 14.927 35.825 14.927 29.854 0 35.825-17.913 35.825-35.825v-89.563h-35.825v77.621c0 11.942-2.985 20.898-17.913 20.898s-17.913-8.956-17.913-20.898v-74.636h-35.825v119.417z" />
<glyph unicode="&#xe614;" horiz-adv-x="5741" d="M128.373 939.102c-83.592-35.825-128.373-98.519-128.373-98.519 11.942 0 23.883 11.942 38.81 17.913 131.359 50.752 232.863 32.84 352.28-65.679 98.519-89.563 134.344-223.907 101.504-355.265-14.927-56.723-44.781-110.461-83.592-155.242 131.359 74.636 203.009 211.965 188.082 361.236-11.942 113.446-92.548 226.892-197.038 274.659-35.825 17.913-131.359 71.65-271.673 20.898z" />
<glyph unicode="&#xe615;" horiz-adv-x="5741" d="M409.003 273.353c113.446 32.84 220.921 140.315 250.776 256.746 32.84 128.373 0 262.717-101.504 352.28h158.227v-609.026h-307.499z" />
<glyph unicode="&#xe616;" horiz-adv-x="5741" d="M107.475 273.353h274.659c-44.781 83.592-119.417 149.271-205.994 179.125-11.942-77.621-35.825-140.315-68.665-179.125z" />
<glyph unicode="&#xe617;" horiz-adv-x="5741" d="M182.111 616.676c-2.985 0-5.971 2.985-8.956 2.985 2.985-26.869 5.971-53.738 5.971-83.592 0-5.971 0-14.927 0-20.898 89.563-41.796 164.198-119.417 197.038-208.98l8.956-29.854c5.971 140.315-71.65 277.644-203.009 340.338z" />
<glyph unicode="&#xe618;" horiz-adv-x="5741" d="M259.732 789.831c-59.708 29.854-128.373 41.796-200.023 32.84 32.84-11.942 65.679-53.738 89.563-110.461 101.504-32.84 191.067-113.446 229.878-214.95 29.854-68.665 29.854-149.271 14.927-223.907 32.84 47.767 50.752 101.504 59.708 158.227 14.927 149.271-59.708 289.586-194.052 358.251z" />
<glyph unicode="&#xe619;" horiz-adv-x="5741" d="M874.729 691.312h80.606l119.417-355.265 119.417 355.265h80.606v-417.959h-50.752v247.79c0 8.956 0 23.883 0 41.796 0 20.898 0 41.796 0 62.694l-119.417-352.28h-56.723l-122.402 355.265v-11.942c0-8.956 0-26.869 0-47.767s0-35.825 0-47.767v-247.79h-53.738v417.959z" />
<glyph unicode="&#xe61a;" horiz-adv-x="5741" d="M1391.207 691.312l80.606-340.338 95.534 340.338h62.694l95.534-340.338 77.621 340.338h62.694l-110.461-417.959h-59.708l-95.534 349.294-101.504-349.294h-59.708l-107.475 417.959h59.708z" />
<glyph unicode="&#xe61b;" horiz-adv-x="5741" d="M1928.583 691.312h56.723v-417.959h-56.723v417.959z" />
<glyph unicode="&#xe61c;" horiz-adv-x="5741" d="M2101.738 625.633c-8.956-8.956-17.913-11.942-26.869-11.942-11.942 0-20.898 2.985-26.869 11.942-8.956 8.956-11.942 17.913-11.942 26.869 0 11.942 2.985 20.898 11.942 26.869 5.971 8.956 14.927 11.942 26.869 11.942s20.898-2.985 26.869-11.942c8.956-8.956 11.942-17.913 11.942-26.869 0-11.942-2.985-20.898-11.942-26.869zM2050.985 676.385c-5.971-5.971-8.956-14.927-8.956-23.883s2.985-17.913 8.956-23.883c5.971-5.971 14.927-8.956 23.883-8.956s17.913 2.985 23.883 8.956c5.971 5.971 8.956 14.927 8.956 23.883s-2.985 17.913-8.956 23.883c-5.971 5.971-14.927 8.956-23.883 8.956s-17.913-2.985-23.883-8.956zM2074.869 673.399c5.971 0 8.956 0 11.942-2.985s5.971-5.971 5.971-11.942c0-2.985 0-5.971-2.985-8.956 0 0-2.985-2.985-5.971-2.985 2.985 0 5.971-2.985 5.971-2.985 2.985-2.985 2.985-5.971 2.985-5.971v-2.985c0 0 0-2.985 0-2.985s0-2.985 0-2.985v0h-5.971c0 0 0 0 0 0s0 0 0 0v0 2.985c0 5.971 0 8.956-2.985 8.956s-2.985 0-8.956 0h-5.971v-8.956h-8.956v41.796h14.927zM2080.84 667.429c-2.985 0-5.971 2.985-8.956 2.985h-5.971v-14.927h5.971c2.985 0 5.971 0 5.971 0 2.985 0 2.985 2.985 2.985 5.971 2.985 2.985 2.985 5.971 0 5.971z" />
<glyph unicode="&#xe61d;" horiz-adv-x="5741" d="M2364.455 691.312h65.679l149.271-417.959h-62.694l-44.781 125.388h-164.198l-44.781-125.388h-59.708l161.213 417.959zM2457.003 446.507l-62.694 185.096-65.679-185.096h128.373z" />
<glyph unicode="&#xe61e;" horiz-adv-x="5741" d="M2624.187 577.866h47.767v-44.781c14.927 17.913 29.854 29.854 44.781 38.81s32.84 11.942 53.738 11.942c44.781 0 71.65-14.927 86.577-44.781 8.956-17.913 11.942-38.81 11.942-71.65v-194.052h-53.738v194.052c0 17.913-2.985 32.84-8.956 44.781-8.956 17.913-26.869 29.854-50.752 29.854-11.942 0-20.898 0-29.854-2.985-14.927-2.985-26.869-11.942-35.825-23.883-8.956-8.956-14.927-20.898-17.913-29.854-2.985-11.942-2.985-26.869-2.985-44.781v-167.184h-50.752v304.513z" />
<glyph unicode="&#xe61f;" horiz-adv-x="5741" d="M2943.627 691.312h53.738v-59.708h-53.738v59.708zM2943.627 577.866h53.738v-304.513h-53.738v304.513z" />
<glyph unicode="&#xe620;" horiz-adv-x="5741" d="M3069.015 577.866h50.752v-44.781c11.942 14.927 23.883 26.869 32.84 32.84 17.913 11.942 35.825 17.913 56.723 17.913 23.883 0 44.781-5.971 59.708-17.913 8.956-5.971 14.927-17.913 23.883-29.854 11.942 14.927 23.883 29.854 38.81 35.825 14.927 8.956 32.84 11.942 50.752 11.942 41.796 0 68.665-14.927 83.592-44.781 8.956-14.927 11.942-38.81 11.942-65.679v-200.023h-53.738v211.965c0 20.898-5.971 35.825-14.927 41.796-8.956 8.956-23.883 11.942-35.825 11.942-20.898 0-38.81-5.971-50.752-20.898-14.927-14.927-20.898-35.825-20.898-68.665v-179.125h-53.738v200.023c0 20.898-2.985 35.825-5.971 44.781-8.956 14.927-20.898 20.898-44.781 20.898-20.898 0-35.825-8.956-53.738-23.883-14.927-14.927-23.883-41.796-23.883-80.606v-158.227h-50.752v304.513z" />
<glyph unicode="&#xe621;" horiz-adv-x="5741" d="M3713.866 458.449c11.942 2.985 20.898 5.971 23.883 14.927 2.985 5.971 2.985 11.942 2.985 20.898 0 17.913-5.971 29.854-17.913 38.81s-29.854 11.942-53.738 11.942c-26.869 0-44.781-5.971-56.723-20.898-5.971-8.956-8.956-20.898-11.942-35.825h-47.767c0 38.81 11.942 62.694 35.825 77.621s50.752 20.898 80.606 20.898c35.825 0 65.679-5.971 86.577-20.898s32.84-35.825 32.84-62.694v-176.14c0-5.971 0-8.956 2.985-11.942s5.971-5.971 14.927-5.971c2.985 0 5.971 0 8.956 0s5.971 0 8.956 0v-38.81c-8.956-2.985-14.927-2.985-17.913-2.985s-8.956 0-17.913 0c-17.913 0-29.854 5.971-38.81 17.913-2.985 5.971-5.971 14.927-8.956 26.869-11.942-14.927-26.869-26.869-44.781-35.825-20.898-8.956-41.796-14.927-65.679-14.927-29.854 0-50.752 8.956-68.665 26.869s-26.869 38.81-26.869 65.679c0 26.869 8.956 50.752 26.869 65.679s41.796 23.883 68.665 29.854l83.592 8.956zM3606.391 318.134c11.942-8.956 23.883-11.942 38.81-11.942 17.913 0 35.825 2.985 53.738 11.942 29.854 14.927 41.796 35.825 41.796 68.665v41.796c-5.971-2.985-14.927-5.971-23.883-8.956s-20.898-5.971-29.854-5.971l-29.854-2.985c-17.913-2.985-32.84-5.971-41.796-11.942-14.927-8.956-23.883-23.883-23.883-41.796s2.985-29.854 14.927-38.81z" />
<glyph unicode="&#xe622;" horiz-adv-x="5741" d="M3872.093 691.312h50.752v-417.959h-50.752v417.959z" />
<glyph unicode="&#xe623;" horiz-adv-x="5741" d="M4161.679 691.312h56.723v-173.155h214.95v173.155h56.723v-417.959h-56.723v197.038h-214.95v-197.038h-56.723v417.959z" />
<glyph unicode="&#xe624;" horiz-adv-x="5741" d="M4758.764 571.895c20.898-8.956 35.825-23.883 47.767-38.81 8.956-14.927 17.913-32.84 20.898-53.738 2.985-14.927 5.971-35.825 5.971-68.665h-223.907c0-29.854 8.956-56.723 20.898-74.636 14.927-17.913 35.825-26.869 62.694-26.869s47.767 8.956 62.694 26.869c8.956 8.956 14.927 20.898 17.913 35.825h50.752c0-11.942-5.971-23.883-11.942-38.81-8.956-14.927-14.927-23.883-23.883-32.84-14.927-14.927-35.825-26.869-56.723-29.854-11.942-2.985-26.869-5.971-41.796-5.971-38.81 0-68.665 14.927-95.534 41.796s-38.81 65.679-38.81 116.431c0 47.767 11.942 89.563 38.81 119.417s59.708 44.781 104.49 44.781c17.913 0 38.81-5.971 59.708-14.927zM4776.676 449.493c-2.985 20.898-5.971 38.81-14.927 53.738-14.927 23.883-35.825 35.825-68.665 35.825-23.883 0-41.796-8.956-59.708-26.869-14.927-17.913-23.883-38.81-23.883-65.679h167.184z" />
<glyph unicode="&#xe625;" horiz-adv-x="5741" d="M5054.321 458.449c11.942 2.985 20.898 5.971 23.883 14.927 2.985 5.971 2.985 11.942 2.985 20.898 0 17.913-5.971 29.854-17.913 38.81s-29.854 11.942-53.738 11.942c-26.869 0-44.781-5.971-56.723-20.898-5.971-8.956-8.956-20.898-11.942-35.825h-47.767c0 38.81 11.942 62.694 35.825 77.621s50.752 20.898 80.606 20.898c35.825 0 65.679-5.971 86.577-20.898s32.84-35.825 32.84-62.694v-176.14c0-5.971 0-8.956 2.985-11.942s5.971-5.971 14.927-5.971c2.985 0 5.971 0 8.956 0s5.971 0 8.956 0v-38.81c-8.956-2.985-14.927-2.985-17.913-2.985s-8.956 0-17.913 0c-17.913 0-29.854 5.971-38.81 17.913-2.985 5.971-5.971 14.927-8.956 26.869-11.942-14.927-26.869-26.869-44.781-35.825-20.898-8.956-41.796-14.927-65.679-14.927-29.854 0-50.752 8.956-68.665 26.869s-26.869 38.81-26.869 65.679c0 26.869 8.956 50.752 26.869 65.679s41.796 23.883 68.665 29.854l83.592 8.956zM4946.845 318.134c11.942-8.956 23.883-11.942 38.81-11.942 17.913 0 35.825 2.985 53.738 11.942 29.854 14.927 41.796 35.825 41.796 68.665v41.796c-5.971-2.985-14.927-5.971-23.883-8.956s-20.898-5.971-29.854-5.971l-29.854-2.985c-17.913-2.985-32.84-5.971-41.796-11.942-14.927-8.956-23.883-23.883-23.883-41.796-2.985-17.913 2.985-29.854 14.927-38.81z" />
<glyph unicode="&#xe626;" horiz-adv-x="5741" d="M5212.548 691.312h50.752v-417.959h-50.752v417.959z" />
<glyph unicode="&#xe627;" horiz-adv-x="5741" d="M5346.892 664.443h50.752v-86.577h47.767v-41.796h-47.767v-200.023c0-11.942 2.985-17.913 11.942-20.898 2.985-2.985 11.942-2.985 20.898-2.985 2.985 0 5.971 0 8.956 0s5.971 0 8.956 0v-38.81c-5.971-2.985-11.942-2.985-17.913-2.985s-11.942 0-20.898 0c-23.883 0-38.81 5.971-47.767 17.913s-11.942 26.869-11.942 47.767v203.009h-41.796v41.796h41.796v83.592z" />
<glyph unicode="&#xe628;" horiz-adv-x="5741" d="M5493.178 694.297h50.752v-155.242c11.942 14.927 23.883 26.869 32.84 32.84 17.913 11.942 35.825 14.927 62.694 14.927 44.781 0 74.636-14.927 89.563-47.767 8.956-17.913 11.942-41.796 11.942-71.65v-194.052h-53.738v194.052c0 23.883-2.985 38.81-8.956 50.752-8.956 17.913-26.869 23.883-53.738 23.883-20.898 0-41.796-5.971-56.723-20.898-17.913-14.927-26.869-41.796-26.869-83.592v-164.198h-47.767v420.945z" />
<glyph unicode="&#xe629;" glyph-name="search" d="M1003.313 44.606l-310.303 310.303c46.545 62.061 72.404 139.636 72.404 222.384 0 212.040-170.667 382.707-382.707 382.707s-382.707-170.667-382.707-382.707c0-212.040 170.667-382.707 382.707-382.707 82.747 0 160.323 25.859 222.384 72.404l310.303-310.303c25.859-25.859 62.061-25.859 87.919 0 25.859 20.687 25.859 62.061 0 87.919zM382.707 256.646c-175.838 0-320.646 144.808-320.646 320.646s144.808 320.646 320.646 320.646c175.838 0 320.646-144.808 320.646-320.646 0-181.010-139.636-320.646-320.646-320.646z" />
</font>
</defs>
</svg>
