<svg xmlns="http://www.w3.org/2000/svg" viewBox="0 0 192.3 34.3"><path fill="#04569A" d="M30.2 27.5h1.4l2.1 5.5h-1.5l-.3-.9h-2l-.3.9h-1.5l2.1-5.5zm1.4 3.6l-.7-2.3-.7 2.3h1.4zM34.1 28.8h1.2v.4c.3-.4.8-.5 1.2-.5.5 0 .8.2 1.1.5.4-.4.8-.5 1.3-.5.4 0 1.3.1 1.3 1.1v3.1H39v-2.4c0-.6-.2-.8-.6-.8-.4 0-.6.3-.6.7v2.5h-1.2v-2.6c0-.4-.1-.7-.6-.7s-.6.3-.6.7v2.5h-1.2v-4zM42 31.1c0 .8.5 1 .9 1s.7-.2 1-.7l.9.5c-.4.8-1.1 1.1-2 1.1-1.3 0-2-.9-2-2 0-1.4.8-2.3 2-2.3 1.5 0 2 1.1 2 2.4H42zm1.6-.7c0-.6-.5-.8-.8-.8-.3 0-.8.2-.8.8h1.6zM45.5 28.8h1.2v.4c.3-.2.7-.4 1.1-.4v1.1h-.1c-.7.1-1 .2-1 .7V33h-1.2v-4.2zM48.3 27.5h1.2v.9h-1.2v-.9zm1.2 5.4h-1.2v-4.1h1.2v4.1zM53.1 30.1c-.2-.3-.8-.4-1.1-.4-.3 0-.5.1-.5.3 0 .7 2.4.1 2.4 1.7 0 1.1-1 1.5-1.8 1.5-.9 0-1.4-.3-2-.8l.7-.6c.4.4.7.6 1.3.6.2 0 .7 0 .7-.4 0-.6-2.4-.1-2.4-1.6 0-1 .9-1.4 1.7-1.4.6 0 1.3.2 1.8.6l-.8.5zM58.6 30.9c0 1.4-.9 2.2-2.2 2.2-1.3 0-2.2-.8-2.2-2.2 0-1.4.9-2.2 2.2-2.2 1.3 0 2.2.8 2.2 2.2m-3.2 0c0 .7.3 1.2 1 1.2s1-.5 1-1.3c0-.7-.3-1.2-1-1.2-.7.1-1 .6-1 1.3M62.8 32.9h-1.2v-.4c-.3.4-.8.5-1.2.5-1 0-1.2-.6-1.2-1.2v-3h1.2v2.7c0 .4.1.6.6.6.3 0 .6-.2.6-.6v-2.6h1.2v4zM63.8 28.8H65v.4c.3-.2.7-.4 1.1-.4v1.1H66c-.7.1-1 .2-1 .7V33h-1.2v-4.2zM69.2 30.2c-.2-.5-.6-.6-.8-.6-.7 0-.9.5-.9 1.2s.3 1.2.9 1.2c.4 0 .7-.1.9-.6l.9.4c-.4.7-1 1.1-1.8 1.1-1.2 0-2.1-.8-2.1-2.2 0-1.4.9-2.2 2-2.2.8 0 1.4.3 1.8 1l-.9.7zM71.6 31.1c0 .8.5 1 .9 1s.7-.2 1-.7l.9.5c-.4.8-1.1 1.1-2 1.1-1.3 0-2-.9-2-2 0-1.4.8-2.3 2-2.3 1.5 0 2 1.1 2 2.4h-2.8zm1.6-.7c0-.6-.5-.8-.8-.8-.3 0-.8.2-.8.8h1.6zM75.1 27.5h2.7c1.1 0 1.9.4 1.9 1.4 0 .7-.4 1.1-1.1 1.2.7.1 1.3.4 1.3 1.3 0 1.1-.8 1.6-2.2 1.6h-2.5v-5.5zm1.3 2.1h1.1c.4 0 .7-.2.7-.6 0-.5-.3-.6-.7-.6h-1.1v1.2zm0 2.3h1.1c.7 0 .9-.3.9-.6 0-.5-.2-.7-.7-.7h-1.4v1.3zM81.4 31.1c0 .8.5 1 .9 1s.7-.2 1-.7l.9.5c-.4.8-1.1 1.1-2 1.1-1.3 0-2-.9-2-2 0-1.4.8-2.3 2-2.3 1.5 0 2 1.1 2 2.4h-2.8zm1.6-.7c0-.6-.5-.8-.8-.8-.3 0-.8.2-.8.8H83zM84.9 28.8h1.2v.4c.3-.2.7-.4 1.1-.4v1.1h-.1c-.7.1-1 .2-1 .7V33h-1.2v-4.2zM91.3 28.8v4.1c0 1.3-1.3 1.3-2 1.3-1.2 0-1.9-.4-1.9-1.4h1.2c0 .4.3.6.7.6.5 0 .7-.1.7-.7v-.5c-.3.3-.8.3-1.1.3-1.1 0-1.6-.9-1.6-2 0-1 .5-2 1.6-2 .4 0 .8.1 1.2.4v-.3h1.2zm-1.9.8c-.4 0-.8.2-.8 1.1 0 .5.1 1.1.7 1.1.8 0 .8-.7.8-1.1.1-.8-.3-1.1-.7-1.1M93.2 31.1c0 .8.5 1 .9 1s.7-.2 1-.7l.9.5c-.4.8-1.1 1.1-2 1.1-1.3 0-2-.9-2-2 0-1.4.8-2.3 2-2.3 1.5 0 2 1.1 2 2.4h-2.8zm1.6-.7c0-.6-.5-.8-.8-.8-.3 0-.8.2-.8.8h1.6zM96.7 28.8h1.2v.4c.3-.4.8-.5 1.2-.5 1 0 1.2.6 1.2 1.2v3h-1.2v-2.6c0-.4-.1-.7-.6-.7s-.6.3-.6.7v2.5h-1.2v-4z"/><g fill="#04569A"><path d="M4.3.7C1.5 1.9 0 4 0 4c.4 0 .8-.4 1.3-.6 4.4-1.7 7.8-1.1 11.8 2.2 3.3 3 4.5 7.5 3.4 11.9-.5 1.9-1.5 3.7-2.8 5.2 4.4-2.5 6.8-7.1 6.3-12.1-.4-3.8-3.1-7.6-6.6-9.2C12.2.8 9-1 4.3.7"/><path d="M13.7 23c3.8-1.1 7.4-4.7 8.4-8.6 1.1-4.3 0-8.8-3.4-11.8H24V23H13.7zM3.6 23h9.2c-1.5-2.8-4-5-6.9-6-.4 2.6-1.2 4.7-2.3 6"/><path d="M6.1 11.5c-.1 0-.2-.1-.3-.1.1.9.2 1.8.2 2.8v.7c3 1.4 5.5 4 6.6 7l.3 1c.2-4.7-2.4-9.3-6.8-11.4"/><path d="M8.7 5.7c-2-1-4.3-1.4-6.7-1.1 1.1.4 2.2 1.8 3 3.7 3.4 1.1 6.4 3.8 7.7 7.2 1 2.3 1 5 .5 7.5 1.1-1.6 1.7-3.4 2-5.3.5-5-2-9.7-6.5-12"/></g><g fill="#010202"><path d="M29.3 9H32l4 11.9L40 9h2.7v14H41v-8.3-1.4-2.1L37 23h-1.9L31 11.1V23h-1.8V9zM46.6 9l2.7 11.4L52.5 9h2.1l3.2 11.4L60.4 9h2.1l-3.7 14h-2l-3.2-11.7L50.2 23h-2L44.6 9h2zM64.6 9h1.9v14h-1.9V9zM70.4 11.2c-.3.3-.6.4-.9.4-.4 0-.7-.1-.9-.4-.3-.3-.4-.6-.4-.9 0-.4.1-.7.4-.9.2-.3.5-.4.9-.4s.7.1.9.4c.3.3.4.6.4.9 0 .4-.1.7-.4.9zm-1.7-1.7c-.2.2-.3.5-.3.8 0 .3.1.6.3.8.2.2.5.3.8.3s.6-.1.8-.3c.2-.2.3-.5.3-.8 0-.3-.1-.6-.3-.8-.2-.2-.5-.3-.8-.3-.3 0-.6.1-.8.3zm.8.1c.2 0 .3 0 .4.1.1.1.2.2.2.4 0 .1 0 .2-.1.3 0 0-.1.1-.2.1.1 0 .2.1.2.1.1.1.1.2.1.2V11.1h-.2V11c0-.2 0-.3-.1-.3h-.5v.3H69V9.6h.5zm.2.2c-.1 0-.2-.1-.3-.1h-.2v.5h.4c.1 0 .1-.1.1-.2.1-.1.1-.2 0-.2zM79.2 9h2.2l5 14h-2.1l-1.5-4.2h-5.5L75.8 23h-2l5.4-14zm3.1 8.2L80.2 11 78 17.2h4.3zM87.9 12.8h1.6v1.5c.5-.6 1-1 1.5-1.3.5-.3 1.1-.4 1.8-.4 1.5 0 2.4.5 2.9 1.5.3.6.4 1.3.4 2.4V23h-1.8v-6.5c0-.6-.1-1.1-.3-1.5-.3-.6-.9-1-1.7-1-.4 0-.7 0-1 .1-.5.1-.9.4-1.2.8-.3.3-.5.7-.6 1-.1.4-.1.9-.1 1.5V23h-1.7V12.8zM98.6 9h1.8v2h-1.8V9zm0 3.8h1.8V23h-1.8V12.8zM102.8 12.8h1.7v1.5c.4-.5.8-.9 1.1-1.1.6-.4 1.2-.6 1.9-.6.8 0 1.5.2 2 .6.3.2.5.6.8 1 .4-.5.8-1 1.3-1.2.5-.3 1.1-.4 1.7-.4 1.4 0 2.3.5 2.8 1.5.3.5.4 1.3.4 2.2V23h-1.8v-7.1c0-.7-.2-1.2-.5-1.4-.3-.3-.8-.4-1.2-.4-.7 0-1.3.2-1.7.7-.5.5-.7 1.2-.7 2.3v6h-1.8v-6.7c0-.7-.1-1.2-.2-1.5-.3-.5-.7-.7-1.5-.7-.7 0-1.2.3-1.8.8-.5.5-.8 1.4-.8 2.7V23h-1.7V12.8zM124.4 16.8c.4-.1.7-.2.8-.5.1-.2.1-.4.1-.7 0-.6-.2-1-.6-1.3-.4-.3-1-.4-1.8-.4-.9 0-1.5.2-1.9.7-.2.3-.3.7-.4 1.2H119c0-1.3.4-2.1 1.2-2.6.8-.5 1.7-.7 2.7-.7 1.2 0 2.2.2 2.9.7.7.5 1.1 1.2 1.1 2.1v5.9c0 .2 0 .3.1.4.1.1.2.2.5.2h.6v1.3c-.3.1-.5.1-.6.1h-.6c-.6 0-1-.2-1.3-.6-.1-.2-.2-.5-.3-.9-.4.5-.9.9-1.5 1.2-.7.3-1.4.5-2.2.5-1 0-1.7-.3-2.3-.9-.6-.6-.9-1.3-.9-2.2 0-.9.3-1.7.9-2.2.6-.5 1.4-.8 2.3-1l2.8-.3zm-3.6 4.7c.4.3.8.4 1.3.4.6 0 1.2-.1 1.8-.4 1-.5 1.4-1.2 1.4-2.3v-1.4c-.2.1-.5.2-.8.3-.3.1-.7.2-1 .2l-1 .1c-.6.1-1.1.2-1.4.4-.5.3-.8.8-.8 1.4 0 .6.1 1 .5 1.3zM129.7 9h1.7v14h-1.7V9zM139.4 9h1.9v5.8h7.2V9h1.9v14h-1.9v-6.6h-7.2V23h-1.9V9zM159.4 13c.7.3 1.2.8 1.6 1.3.3.5.6 1.1.7 1.8.1.5.2 1.2.2 2.3h-7.5c0 1 .3 1.9.7 2.5.5.6 1.2.9 2.1.9.9 0 1.6-.3 2.1-.9.3-.3.5-.7.6-1.2h1.7c0 .4-.2.8-.4 1.3-.3.5-.5.8-.8 1.1-.5.5-1.2.9-1.9 1-.4.1-.9.2-1.4.2-1.3 0-2.3-.5-3.2-1.4-.9-.9-1.3-2.2-1.3-3.9 0-1.6.4-3 1.3-4s2-1.5 3.5-1.5c.6 0 1.3.2 2 .5zm.6 4.1c-.1-.7-.2-1.3-.5-1.8-.5-.8-1.2-1.2-2.3-1.2-.8 0-1.4.3-2 .9-.5.6-.8 1.3-.8 2.2h5.6zM169.3 16.8c.4-.1.7-.2.8-.5.1-.2.1-.4.1-.7 0-.6-.2-1-.6-1.3-.4-.3-1-.4-1.8-.4-.9 0-1.5.2-1.9.7-.2.3-.3.7-.4 1.2h-1.6c0-1.3.4-2.1 1.2-2.6.8-.5 1.7-.7 2.7-.7 1.2 0 2.2.2 2.9.7.7.5 1.1 1.2 1.1 2.1v5.9c0 .2 0 .3.1.4.1.1.2.2.5.2h.6v1.3c-.3.1-.5.1-.6.1h-.6c-.6 0-1-.2-1.3-.6-.1-.2-.2-.5-.3-.9-.4.5-.9.9-1.5 1.2-.7.3-1.4.5-2.2.5-1 0-1.7-.3-2.3-.9-.6-.6-.9-1.3-.9-2.2 0-.9.3-1.7.9-2.2.6-.5 1.4-.8 2.3-1l2.8-.3zm-3.6 4.7c.4.3.8.4 1.3.4.6 0 1.2-.1 1.8-.4 1-.5 1.4-1.2 1.4-2.3v-1.4c-.2.1-.5.2-.8.3-.3.1-.7.2-1 .2l-1 .1c-.6.1-1.1.2-1.4.4-.5.3-.8.8-.8 1.4-.1.6.1 1 .5 1.3zM174.6 9h1.7v14h-1.7V9zM179.1 9.9h1.7v2.9h1.6v1.4h-1.6v6.7c0 .4.1.6.4.7.1.1.4.1.7.1h.6V23c-.2.1-.4.1-.6.1h-.7c-.8 0-1.3-.2-1.6-.6-.3-.4-.4-.9-.4-1.6v-6.8h-1.4v-1.4h1.4V9.9zM184 8.9h1.7v5.2c.4-.5.8-.9 1.1-1.1.6-.4 1.2-.5 2.1-.5 1.5 0 2.5.5 3 1.6.3.6.4 1.4.4 2.4V23h-1.8v-6.5c0-.8-.1-1.3-.3-1.7-.3-.6-.9-.8-1.8-.8-.7 0-1.4.2-1.9.7-.6.5-.9 1.4-.9 2.8V23H184V8.9z"/></g></svg>