<svg xmlns="http://www.w3.org/2000/svg" viewBox="0 0 31.7 31.7"><circle fill="#47A4DC" cx="15.7" cy="15.9" r="13.5"/><path fill="#FFF" d="M15.8 0C7.1 0 0 7.1 0 15.8c0 8.8 7.1 15.8 15.8 15.8 8.8 0 15.8-7.1 15.8-15.8.1-8.7-7-15.8-15.8-15.8zm-3.6 25.9c-1 0-1.8-.8-1.8-1.8s.8-1.8 1.8-1.8 1.8.8 1.8 1.8-.8 1.8-1.8 1.8zm9.1 0c-1 0-1.8-.8-1.8-1.8s.8-1.8 1.8-1.8 1.8.8 1.8 1.8-.8 1.8-1.8 1.8zM24.8 11l-3.2 5.9c-.3.6-.9.9-1.6.9h-6.7l-.8 1.5v.1c0 .1.1.2.2.2h10.4v1.8H12.2c-1 0-1.8-.8-1.8-1.8 0-.3.1-.6.2-.9l1.2-2.2-3.2-6.9H6.8V7.8h3l.8 1.8H24c.5 0 .9.4.9.9 0 .2-.1.3-.1.5z"/></svg>