<?xml version="1.0" encoding="utf-8"?>
<!-- Generator: Adobe Illustrator 18.0.0, SVG Export Plug-In . SVG Version: 6.00 Build 0)  -->
<!DOCTYPE svg PUBLIC "-//W3C//DTD SVG 1.1//EN" "http://www.w3.org/Graphics/SVG/1.1/DTD/svg11.dtd">
<svg version="1.1" id="Layer_1" xmlns="http://www.w3.org/2000/svg" xmlns:xlink="http://www.w3.org/1999/xlink" x="0px" y="0px"
	 viewBox="0 0 192.3 34.3" enable-background="new 0 0 192.3 34.3" xml:space="preserve">
<g>
	<path fill="#04569A" d="M30.2,27.5h1.4l2.1,5.5h-1.5l-0.3-0.9h-2l-0.3,0.9h-1.5L30.2,27.5z M31.6,31.1l-0.7-2.3h0l-0.7,2.3H31.6z"
		/>
	<path fill="#04569A" d="M34.1,28.8h1.2v0.4c0.3-0.4,0.8-0.5,1.2-0.5c0.5,0,0.8,0.2,1.1,0.5c0.4-0.4,0.8-0.5,1.3-0.5
		c0.4,0,1.3,0.1,1.3,1.1v3.1h-1.2v-2.4c0-0.6-0.2-0.8-0.6-0.8c-0.4,0-0.6,0.3-0.6,0.7v2.5h-1.2v-2.6c0-0.4-0.1-0.7-0.6-0.7
		c-0.5,0-0.6,0.3-0.6,0.7v2.5h-1.2V28.8z"/>
	<path fill="#04569A" d="M42,31.1c0,0.8,0.5,1,0.9,1c0.4,0,0.7-0.2,1-0.7l0.9,0.5c-0.4,0.8-1.1,1.1-2,1.1c-1.3,0-2-0.9-2-2
		c0-1.4,0.8-2.3,2-2.3c1.5,0,2,1.1,2,2.4H42z M43.6,30.4c0-0.6-0.5-0.8-0.8-0.8c-0.3,0-0.8,0.2-0.8,0.8H43.6z"/>
	<path fill="#04569A" d="M45.5,28.8h1.2v0.4c0.3-0.2,0.7-0.4,1.1-0.4l0,1.1l-0.1,0c-0.7,0.1-1,0.2-1,0.7v2.4h-1.2V28.8z"/>
	<path fill="#04569A" d="M48.3,27.5h1.2v0.9h-1.2V27.5z M49.5,32.9h-1.2v-4.1h1.2V32.9z"/>
	<path fill="#04569A" d="M53.1,30.1c-0.2-0.3-0.8-0.4-1.1-0.4c-0.3,0-0.5,0.1-0.5,0.3c0,0.7,2.4,0.1,2.4,1.7c0,1.1-1,1.5-1.8,1.5
		c-0.9,0-1.4-0.3-2-0.8l0.7-0.6c0.4,0.4,0.7,0.6,1.3,0.6c0.2,0,0.7,0,0.7-0.4c0-0.6-2.4-0.1-2.4-1.6c0-1,0.9-1.4,1.7-1.4
		c0.6,0,1.3,0.2,1.8,0.6L53.1,30.1z"/>
	<path fill="#04569A" d="M58.6,30.9c0,1.4-0.9,2.2-2.2,2.2c-1.3,0-2.2-0.8-2.2-2.2c0-1.4,0.9-2.2,2.2-2.2
		C57.7,28.7,58.6,29.5,58.6,30.9 M55.4,30.9c0,0.7,0.3,1.2,1,1.2c0.7,0,1-0.5,1-1.3c0-0.7-0.3-1.2-1-1.2
		C55.7,29.7,55.4,30.2,55.4,30.9"/>
	<path fill="#04569A" d="M62.8,32.9h-1.2v-0.4c-0.3,0.4-0.8,0.5-1.2,0.5c-1,0-1.2-0.6-1.2-1.2v-3h1.2v2.7c0,0.4,0.1,0.6,0.6,0.6
		c0.3,0,0.6-0.2,0.6-0.6v-2.6h1.2V32.9z"/>
	<path fill="#04569A" d="M63.8,28.8H65v0.4c0.3-0.2,0.7-0.4,1.1-0.4l0,1.1l-0.1,0c-0.7,0.1-1,0.2-1,0.7v2.4h-1.2V28.8z"/>
	<path fill="#04569A" d="M69.2,30.2c-0.2-0.5-0.6-0.6-0.8-0.6c-0.7,0-0.9,0.5-0.9,1.2c0,0.7,0.3,1.2,0.9,1.2c0.4,0,0.7-0.1,0.9-0.6
		l0.9,0.4c-0.4,0.7-1,1.1-1.8,1.1c-1.2,0-2.1-0.8-2.1-2.2c0-1.4,0.9-2.2,2-2.2c0.8,0,1.4,0.3,1.8,1L69.2,30.2z"/>
	<path fill="#04569A" d="M71.6,31.1c0,0.8,0.5,1,0.9,1c0.4,0,0.7-0.2,1-0.7l0.9,0.5c-0.4,0.8-1.1,1.1-2,1.1c-1.3,0-2-0.9-2-2
		c0-1.4,0.8-2.3,2-2.3c1.5,0,2,1.1,2,2.4H71.6z M73.2,30.4c0-0.6-0.5-0.8-0.8-0.8c-0.3,0-0.8,0.2-0.8,0.8H73.2z"/>
	<path fill="#04569A" d="M75.1,27.5h2.7c1.1,0,1.9,0.4,1.9,1.4c0,0.7-0.4,1.1-1.1,1.2v0c0.7,0.1,1.3,0.4,1.3,1.3
		c0,1.1-0.8,1.6-2.2,1.6h-2.5V27.5z M76.4,29.6h1.1c0.4,0,0.7-0.2,0.7-0.6c0-0.5-0.3-0.6-0.7-0.6h-1.1V29.6z M76.4,31.9h1.1
		c0.7,0,0.9-0.3,0.9-0.6c0-0.5-0.2-0.7-0.7-0.7h-1.4V31.9z"/>
	<path fill="#04569A" d="M81.4,31.1c0,0.8,0.5,1,0.9,1c0.4,0,0.7-0.2,1-0.7l0.9,0.5c-0.4,0.8-1.1,1.1-2,1.1c-1.3,0-2-0.9-2-2
		c0-1.4,0.8-2.3,2-2.3c1.5,0,2,1.1,2,2.4H81.4z M83,30.4c0-0.6-0.5-0.8-0.8-0.8c-0.3,0-0.8,0.2-0.8,0.8H83z"/>
	<path fill="#04569A" d="M84.9,28.8h1.2v0.4c0.3-0.2,0.7-0.4,1.1-0.4l0,1.1l-0.1,0c-0.7,0.1-1,0.2-1,0.7v2.4h-1.2V28.8z"/>
	<path fill="#04569A" d="M91.3,28.8v4.1c0,1.3-1.3,1.3-2,1.3c-1.2,0-1.9-0.4-1.9-1.4h1.2c0,0.4,0.3,0.6,0.7,0.6
		c0.5,0,0.7-0.1,0.7-0.7v-0.5c-0.3,0.3-0.8,0.3-1.1,0.3c-1.1,0-1.6-0.9-1.6-2c0-1,0.5-2,1.6-2c0.4,0,0.8,0.1,1.2,0.4v-0.3H91.3z
		 M89.4,29.6c-0.4,0-0.8,0.2-0.8,1.1c0,0.5,0.1,1.1,0.7,1.1c0.8,0,0.8-0.7,0.8-1.1C90.2,29.9,89.8,29.6,89.4,29.6"/>
	<path fill="#04569A" d="M93.2,31.1c0,0.8,0.5,1,0.9,1c0.4,0,0.7-0.2,1-0.7l0.9,0.5c-0.4,0.8-1.1,1.1-2,1.1c-1.3,0-2-0.9-2-2
		c0-1.4,0.8-2.3,2-2.3c1.5,0,2,1.1,2,2.4H93.2z M94.8,30.4c0-0.6-0.5-0.8-0.8-0.8c-0.3,0-0.8,0.2-0.8,0.8H94.8z"/>
	<path fill="#04569A" d="M96.7,28.8h1.2v0.4c0.3-0.4,0.8-0.5,1.2-0.5c1,0,1.2,0.6,1.2,1.2v3h-1.2v-2.6c0-0.4-0.1-0.7-0.6-0.7
		c-0.5,0-0.6,0.3-0.6,0.7v2.5h-1.2V28.8z"/>
	<g>
		<path fill="#04569A" d="M4.3,0.7C1.5,1.9,0,4,0,4C0.4,4,0.8,3.6,1.3,3.4c4.4-1.7,7.8-1.1,11.8,2.2c3.3,3,4.5,7.5,3.4,11.9
			c-0.5,1.9-1.5,3.7-2.8,5.2c4.4-2.5,6.8-7.1,6.3-12.1c-0.4-3.8-3.1-7.6-6.6-9.2C12.2,0.8,9-1,4.3,0.7"/>
		<path fill="#04569A" d="M13.7,23c3.8-1.1,7.4-4.7,8.4-8.6c1.1-4.3,0-8.8-3.4-11.8H24V23H13.7z"/>
		<path fill="#04569A" d="M3.6,23h9.2c-1.5-2.8-4-5-6.9-6C5.5,19.6,4.7,21.7,3.6,23"/>
		<path fill="#04569A" d="M6.1,11.5c-0.1,0-0.2-0.1-0.3-0.1c0.1,0.9,0.2,1.8,0.2,2.8c0,0.2,0,0.5,0,0.7c3,1.4,5.5,4,6.6,7l0.3,1
			C13.1,18.2,10.5,13.6,6.1,11.5"/>
		<path fill="#04569A" d="M8.7,5.7c-2-1-4.3-1.4-6.7-1.1c1.1,0.4,2.2,1.8,3,3.7c3.4,1.1,6.4,3.8,7.7,7.2c1,2.3,1,5,0.5,7.5
			c1.1-1.6,1.7-3.4,2-5.3C15.7,12.7,13.2,8,8.7,5.7"/>
	</g>
	<g>
		<path fill="#010202" d="M29.3,9h2.7l4,11.9l4-11.9h2.7V23H41v-8.3c0-0.3,0-0.8,0-1.4c0-0.7,0-1.4,0-2.1L37,23h-1.9l-4.1-11.9v0.4
			c0,0.3,0,0.9,0,1.6c0,0.7,0,1.2,0,1.6V23h-1.8V9z"/>
		<path fill="#010202" d="M46.6,9l2.7,11.4L52.5,9h2.1l3.2,11.4L60.4,9h2.1L58.8,23h-2l-3.2-11.7L50.2,23h-2L44.6,9H46.6z"/>
		<path fill="#010202" d="M64.6,9h1.9V23h-1.9V9z"/>
		<path fill="#010202" d="M70.4,11.2c-0.3,0.3-0.6,0.4-0.9,0.4c-0.4,0-0.7-0.1-0.9-0.4c-0.3-0.3-0.4-0.6-0.4-0.9
			c0-0.4,0.1-0.7,0.4-0.9C68.8,9.1,69.1,9,69.5,9c0.4,0,0.7,0.1,0.9,0.4c0.3,0.3,0.4,0.6,0.4,0.9C70.8,10.7,70.7,11,70.4,11.2z
			 M68.7,9.5c-0.2,0.2-0.3,0.5-0.3,0.8c0,0.3,0.1,0.6,0.3,0.8c0.2,0.2,0.5,0.3,0.8,0.3s0.6-0.1,0.8-0.3c0.2-0.2,0.3-0.5,0.3-0.8
			c0-0.3-0.1-0.6-0.3-0.8c-0.2-0.2-0.5-0.3-0.8-0.3C69.2,9.2,68.9,9.3,68.7,9.5z M69.5,9.6c0.2,0,0.3,0,0.4,0.1
			c0.1,0.1,0.2,0.2,0.2,0.4c0,0.1,0,0.2-0.1,0.3c0,0-0.1,0.1-0.2,0.1c0.1,0,0.2,0.1,0.2,0.1c0.1,0.1,0.1,0.2,0.1,0.2v0.1
			c0,0,0,0.1,0,0.1c0,0,0,0.1,0,0.1l0,0h-0.2c0,0,0,0,0,0c0,0,0,0,0,0l0,0v-0.1c0-0.2,0-0.3-0.1-0.3c-0.1,0-0.1,0-0.3,0h-0.2V11H69
			V9.6H69.5z M69.7,9.8c-0.1,0-0.2-0.1-0.3-0.1h-0.2v0.5h0.2c0.1,0,0.2,0,0.2,0c0.1,0,0.1-0.1,0.1-0.2C69.8,9.9,69.8,9.8,69.7,9.8z"
			/>
		<path fill="#010202" d="M79.2,9h2.2L86.4,23h-2.1l-1.5-4.2h-5.5L75.8,23h-2L79.2,9z M82.3,17.2L80.2,11l-2.2,6.2H82.3z"/>
		<path fill="#010202" d="M87.9,12.8h1.6v1.5c0.5-0.6,1-1,1.5-1.3c0.5-0.3,1.1-0.4,1.8-0.4c1.5,0,2.4,0.5,2.9,1.5
			c0.3,0.6,0.4,1.3,0.4,2.4V23h-1.8v-6.5c0-0.6-0.1-1.1-0.3-1.5c-0.3-0.6-0.9-1-1.7-1c-0.4,0-0.7,0-1,0.1c-0.5,0.1-0.9,0.4-1.2,0.8
			c-0.3,0.3-0.5,0.7-0.6,1c-0.1,0.4-0.1,0.9-0.1,1.5V23h-1.7V12.8z"/>
		<path fill="#010202" d="M98.6,9h1.8v2h-1.8V9z M98.6,12.8h1.8V23h-1.8V12.8z"/>
		<path fill="#010202" d="M102.8,12.8h1.7v1.5c0.4-0.5,0.8-0.9,1.1-1.1c0.6-0.4,1.2-0.6,1.9-0.6c0.8,0,1.5,0.2,2,0.6
			c0.3,0.2,0.5,0.6,0.8,1c0.4-0.5,0.8-1,1.3-1.2c0.5-0.3,1.1-0.4,1.7-0.4c1.4,0,2.3,0.5,2.8,1.5c0.3,0.5,0.4,1.3,0.4,2.2V23h-1.8
			v-7.1c0-0.7-0.2-1.2-0.5-1.4c-0.3-0.3-0.8-0.4-1.2-0.4c-0.7,0-1.3,0.2-1.7,0.7c-0.5,0.5-0.7,1.2-0.7,2.3v6h-1.8v-6.7
			c0-0.7-0.1-1.2-0.2-1.5c-0.3-0.5-0.7-0.7-1.5-0.7c-0.7,0-1.2,0.3-1.8,0.8c-0.5,0.5-0.8,1.4-0.8,2.7V23h-1.7V12.8z"/>
		<path fill="#010202" d="M124.4,16.8c0.4-0.1,0.7-0.2,0.8-0.5c0.1-0.2,0.1-0.4,0.1-0.7c0-0.6-0.2-1-0.6-1.3c-0.4-0.3-1-0.4-1.8-0.4
			c-0.9,0-1.5,0.2-1.9,0.7c-0.2,0.3-0.3,0.7-0.4,1.2H119c0-1.3,0.4-2.1,1.2-2.6c0.8-0.5,1.7-0.7,2.7-0.7c1.2,0,2.2,0.2,2.9,0.7
			c0.7,0.5,1.1,1.2,1.1,2.1v5.9c0,0.2,0,0.3,0.1,0.4c0.1,0.1,0.2,0.2,0.5,0.2c0.1,0,0.2,0,0.3,0c0.1,0,0.2,0,0.3,0v1.3
			c-0.3,0.1-0.5,0.1-0.6,0.1c-0.1,0-0.3,0-0.6,0c-0.6,0-1-0.2-1.3-0.6c-0.1-0.2-0.2-0.5-0.3-0.9c-0.4,0.5-0.9,0.9-1.5,1.2
			c-0.7,0.3-1.4,0.5-2.2,0.5c-1,0-1.7-0.3-2.3-0.9c-0.6-0.6-0.9-1.3-0.9-2.2c0-0.9,0.3-1.7,0.9-2.2c0.6-0.5,1.4-0.8,2.3-1
			L124.4,16.8z M120.8,21.5c0.4,0.3,0.8,0.4,1.3,0.4c0.6,0,1.2-0.1,1.8-0.4c1-0.5,1.4-1.2,1.4-2.3v-1.4c-0.2,0.1-0.5,0.2-0.8,0.3
			c-0.3,0.1-0.7,0.2-1,0.2l-1,0.1c-0.6,0.1-1.1,0.2-1.4,0.4c-0.5,0.3-0.8,0.8-0.8,1.4C120.3,20.8,120.4,21.2,120.8,21.5z"/>
		<path fill="#010202" d="M129.7,9h1.7V23h-1.7V9z"/>
		<path fill="#010202" d="M139.4,9h1.9v5.8h7.2V9h1.9V23h-1.9v-6.6h-7.2V23h-1.9V9z"/>
		<path fill="#010202" d="M159.4,13c0.7,0.3,1.2,0.8,1.6,1.3c0.3,0.5,0.6,1.1,0.7,1.8c0.1,0.5,0.2,1.2,0.2,2.3h-7.5
			c0,1,0.3,1.9,0.7,2.5c0.5,0.6,1.2,0.9,2.1,0.9c0.9,0,1.6-0.3,2.1-0.9c0.3-0.3,0.5-0.7,0.6-1.2h1.7c0,0.4-0.2,0.8-0.4,1.3
			c-0.3,0.5-0.5,0.8-0.8,1.1c-0.5,0.5-1.2,0.9-1.9,1c-0.4,0.1-0.9,0.2-1.4,0.2c-1.3,0-2.3-0.5-3.2-1.4c-0.9-0.9-1.3-2.2-1.3-3.9
			c0-1.6,0.4-3,1.3-4c0.9-1,2-1.5,3.5-1.5C158,12.5,158.7,12.7,159.4,13z M160,17.1c-0.1-0.7-0.2-1.3-0.5-1.8
			c-0.5-0.8-1.2-1.2-2.3-1.2c-0.8,0-1.4,0.3-2,0.9c-0.5,0.6-0.8,1.3-0.8,2.2H160z"/>
		<path fill="#010202" d="M169.3,16.8c0.4-0.1,0.7-0.2,0.8-0.5c0.1-0.2,0.1-0.4,0.1-0.7c0-0.6-0.2-1-0.6-1.3c-0.4-0.3-1-0.4-1.8-0.4
			c-0.9,0-1.5,0.2-1.9,0.7c-0.2,0.3-0.3,0.7-0.4,1.2h-1.6c0-1.3,0.4-2.1,1.2-2.6c0.8-0.5,1.7-0.7,2.7-0.7c1.2,0,2.2,0.2,2.9,0.7
			c0.7,0.5,1.1,1.2,1.1,2.1v5.9c0,0.2,0,0.3,0.1,0.4c0.1,0.1,0.2,0.2,0.5,0.2c0.1,0,0.2,0,0.3,0c0.1,0,0.2,0,0.3,0v1.3
			c-0.3,0.1-0.5,0.1-0.6,0.1c-0.1,0-0.3,0-0.6,0c-0.6,0-1-0.2-1.3-0.6c-0.1-0.2-0.2-0.5-0.3-0.9c-0.4,0.5-0.9,0.9-1.5,1.2
			c-0.7,0.3-1.4,0.5-2.2,0.5c-1,0-1.7-0.3-2.3-0.9c-0.6-0.6-0.9-1.3-0.9-2.2c0-0.9,0.3-1.7,0.9-2.2c0.6-0.5,1.4-0.8,2.3-1
			L169.3,16.8z M165.7,21.5c0.4,0.3,0.8,0.4,1.3,0.4c0.6,0,1.2-0.1,1.8-0.4c1-0.5,1.4-1.2,1.4-2.3v-1.4c-0.2,0.1-0.5,0.2-0.8,0.3
			c-0.3,0.1-0.7,0.2-1,0.2l-1,0.1c-0.6,0.1-1.1,0.2-1.4,0.4c-0.5,0.3-0.8,0.8-0.8,1.4C165.1,20.8,165.3,21.2,165.7,21.5z"/>
		<path fill="#010202" d="M174.6,9h1.7V23h-1.7V9z"/>
		<path fill="#010202" d="M179.1,9.9h1.7v2.9h1.6v1.4h-1.6v6.7c0,0.4,0.1,0.6,0.4,0.7c0.1,0.1,0.4,0.1,0.7,0.1c0.1,0,0.2,0,0.3,0
			c0.1,0,0.2,0,0.3,0V23c-0.2,0.1-0.4,0.1-0.6,0.1c-0.2,0-0.4,0-0.7,0c-0.8,0-1.3-0.2-1.6-0.6c-0.3-0.4-0.4-0.9-0.4-1.6v-6.8h-1.4
			v-1.4h1.4V9.9z"/>
		<path fill="#010202" d="M184,8.9h1.7v5.2c0.4-0.5,0.8-0.9,1.1-1.1c0.6-0.4,1.2-0.5,2.1-0.5c1.5,0,2.5,0.5,3,1.6
			c0.3,0.6,0.4,1.4,0.4,2.4V23h-1.8v-6.5c0-0.8-0.1-1.3-0.3-1.7c-0.3-0.6-0.9-0.8-1.8-0.8c-0.7,0-1.4,0.2-1.9,0.7
			c-0.6,0.5-0.9,1.4-0.9,2.8V23H184V8.9z"/>
	</g>
</g>
</svg>
